<?xml version="1.0" encoding="utf-8" standalone="no"?>
<!DOCTYPE svg PUBLIC "-//W3C//DTD SVG 1.1//EN"
  "http://www.w3.org/Graphics/SVG/1.1/DTD/svg11.dtd">
<svg xmlns:xlink="http://www.w3.org/1999/xlink" width="442.8pt" height="198pt" viewBox="0 0 442.8 198" xmlns="http://www.w3.org/2000/svg" version="1.1">
 <metadata>
  <rdf:RDF xmlns:dc="http://purl.org/dc/elements/1.1/" xmlns:cc="http://creativecommons.org/ns#" xmlns:rdf="http://www.w3.org/1999/02/22-rdf-syntax-ns#">
   <cc:Work>
    <dc:type rdf:resource="http://purl.org/dc/dcmitype/StillImage"/>
    <dc:date>2026-06-11T10:01:43.520992</dc:date>
    <dc:format>image/svg+xml</dc:format>
    <dc:creator>
     <cc:Agent>
      <dc:title>Matplotlib v3.10.8, https://matplotlib.org/</dc:title>
     </cc:Agent>
    </dc:creator>
   </cc:Work>
  </rdf:RDF>
 </metadata>
 <defs>
  <style type="text/css">*{stroke-linejoin: round; stroke-linecap: butt}</style>
 </defs>
 <g id="figure_1">
  <g id="patch_1">
   <path d="M 0 198 
L 442.8 198 
L 442.8 0 
L 0 0 
z
" style="fill: #ffffff"/>
  </g>
  <g id="axes_1">
   <g id="patch_2">
    <path d="M 50.922 158.4 
L 436.158 158.4 
L 436.158 17.82 
L 50.922 17.82 
z
" style="fill: #ffffff"/>
   </g>
   <g id="matplotlib.axis_1">
    <g id="xtick_1">
     <g id="line2d_1">
      <path d="M 69.946 158.4 
L 69.946 17.82 
" clip-path="url(#p1f91897707)" style="fill: none; stroke: #d9dee5; stroke-width: 0.58; stroke-linecap: square"/>
     </g>
     <g id="line2d_2">
      <defs>
       <path id="m4037064391" d="M 0 0 
L 0 3 
" style="stroke: #5f6872; stroke-width: 0.65"/>
      </defs>
      <g>
       <use xlink:href="#m4037064391" x="69.946" y="158.4" style="fill: #5f6872; stroke: #5f6872; stroke-width: 0.65"/>
      </g>
     </g>
     <g id="text_1">
      <text style="font-size: 10px; font-family: 'DejaVu Sans Mono', monospace; text-anchor: middle; fill: #5f6872" x="69.946" y="172.551562" transform="rotate(-0 69.946 172.551562)">1</text>
     </g>
    </g>
    <g id="xtick_2">
     <g id="line2d_3">
      <path d="M 141.286 158.4 
L 141.286 17.82 
" clip-path="url(#p1f91897707)" style="fill: none; stroke: #d9dee5; stroke-width: 0.58; stroke-linecap: square"/>
     </g>
     <g id="line2d_4">
      <g>
       <use xlink:href="#m4037064391" x="141.286" y="158.4" style="fill: #5f6872; stroke: #5f6872; stroke-width: 0.65"/>
      </g>
     </g>
     <g id="text_2">
      <text style="font-size: 10px; font-family: 'DejaVu Sans Mono', monospace; text-anchor: middle; fill: #5f6872" x="141.286" y="172.551562" transform="rotate(-0 141.286 172.551562)">4</text>
     </g>
    </g>
    <g id="xtick_3">
     <g id="line2d_5">
      <path d="M 236.406 158.4 
L 236.406 17.82 
" clip-path="url(#p1f91897707)" style="fill: none; stroke: #d9dee5; stroke-width: 0.58; stroke-linecap: square"/>
     </g>
     <g id="line2d_6">
      <g>
       <use xlink:href="#m4037064391" x="236.406" y="158.4" style="fill: #5f6872; stroke: #5f6872; stroke-width: 0.65"/>
      </g>
     </g>
     <g id="text_3">
      <text style="font-size: 10px; font-family: 'DejaVu Sans Mono', monospace; text-anchor: middle; fill: #5f6872" x="236.406" y="172.551562" transform="rotate(-0 236.406 172.551562)">8</text>
     </g>
    </g>
    <g id="xtick_4">
     <g id="line2d_7">
      <path d="M 331.526 158.4 
L 331.526 17.82 
" clip-path="url(#p1f91897707)" style="fill: none; stroke: #d9dee5; stroke-width: 0.58; stroke-linecap: square"/>
     </g>
     <g id="line2d_8">
      <g>
       <use xlink:href="#m4037064391" x="331.526" y="158.4" style="fill: #5f6872; stroke: #5f6872; stroke-width: 0.65"/>
      </g>
     </g>
     <g id="text_4">
      <text style="font-size: 10px; font-family: 'DejaVu Sans Mono', monospace; text-anchor: middle; fill: #5f6872" x="331.526" y="172.551562" transform="rotate(-0 331.526 172.551562)">12</text>
     </g>
    </g>
    <g id="xtick_5">
     <g id="line2d_9">
      <path d="M 379.086 158.4 
L 379.086 17.82 
" clip-path="url(#p1f91897707)" style="fill: none; stroke: #d9dee5; stroke-width: 0.58; stroke-linecap: square"/>
     </g>
     <g id="line2d_10">
      <g>
       <use xlink:href="#m4037064391" x="379.086" y="158.4" style="fill: #5f6872; stroke: #5f6872; stroke-width: 0.65"/>
      </g>
     </g>
     <g id="text_5">
      <text style="font-size: 10px; font-family: 'DejaVu Sans Mono', monospace; text-anchor: middle; fill: #5f6872" x="379.086" y="172.551562" transform="rotate(-0 379.086 172.551562)">14</text>
     </g>
    </g>
    <g id="text_6">
     <text style="font-size: 6.6px; font-family: 'DejaVu Serif', serif; text-anchor: middle; fill: #15191f" x="243.54" y="182.646219" transform="rotate(-0 243.54 182.646219)">Tagged evaluations</text>
    </g>
   </g>
   <g id="matplotlib.axis_2">
    <g id="ytick_1">
     <g id="line2d_11">
      <path d="M 50.922 151.705714 
L 436.158 151.705714 
" clip-path="url(#p1f91897707)" style="fill: none; stroke: #d9dee5; stroke-width: 0.58; stroke-linecap: square"/>
     </g>
     <g id="line2d_12">
      <defs>
       <path id="mbf5bec3340" d="M 0 0 
L -3 0 
" style="stroke: #5f6872; stroke-width: 0.65"/>
      </defs>
      <g>
       <use xlink:href="#mbf5bec3340" x="50.922" y="151.705714" style="fill: #5f6872; stroke: #5f6872; stroke-width: 0.65"/>
      </g>
     </g>
     <g id="text_7">
      <text style="font-size: 5.7px; font-family: 'DejaVu Serif', serif; text-anchor: end; fill: #5f6872" x="44.422" y="153.871269" transform="rotate(-0 44.422 153.871269)">0%</text>
     </g>
    </g>
    <g id="ytick_2">
     <g id="line2d_13">
      <path d="M 50.922 121.953333 
L 436.158 121.953333 
" clip-path="url(#p1f91897707)" style="fill: none; stroke: #d9dee5; stroke-width: 0.58; stroke-linecap: square"/>
     </g>
     <g id="line2d_14">
      <g>
       <use xlink:href="#mbf5bec3340" x="50.922" y="121.953333" style="fill: #5f6872; stroke: #5f6872; stroke-width: 0.65"/>
      </g>
     </g>
     <g id="text_8">
      <text style="font-size: 5.7px; font-family: 'DejaVu Serif', serif; text-anchor: end; fill: #5f6872" x="44.422" y="124.118888" transform="rotate(-0 44.422 124.118888)">20%</text>
     </g>
    </g>
    <g id="ytick_3">
     <g id="line2d_15">
      <path d="M 50.922 92.200952 
L 436.158 92.200952 
" clip-path="url(#p1f91897707)" style="fill: none; stroke: #d9dee5; stroke-width: 0.58; stroke-linecap: square"/>
     </g>
     <g id="line2d_16">
      <g>
       <use xlink:href="#mbf5bec3340" x="50.922" y="92.200952" style="fill: #5f6872; stroke: #5f6872; stroke-width: 0.65"/>
      </g>
     </g>
     <g id="text_9">
      <text style="font-size: 5.7px; font-family: 'DejaVu Serif', serif; text-anchor: end; fill: #5f6872" x="44.422" y="94.366507" transform="rotate(-0 44.422 94.366507)">40%</text>
     </g>
    </g>
    <g id="ytick_4">
     <g id="line2d_17">
      <path d="M 50.922 62.448571 
L 436.158 62.448571 
" clip-path="url(#p1f91897707)" style="fill: none; stroke: #d9dee5; stroke-width: 0.58; stroke-linecap: square"/>
     </g>
     <g id="line2d_18">
      <g>
       <use xlink:href="#mbf5bec3340" x="50.922" y="62.448571" style="fill: #5f6872; stroke: #5f6872; stroke-width: 0.65"/>
      </g>
     </g>
     <g id="text_10">
      <text style="font-size: 5.7px; font-family: 'DejaVu Serif', serif; text-anchor: end; fill: #5f6872" x="44.422" y="64.614126" transform="rotate(-0 44.422 64.614126)">60%</text>
     </g>
    </g>
    <g id="ytick_5">
     <g id="line2d_19">
      <path d="M 50.922 32.69619 
L 436.158 32.69619 
" clip-path="url(#p1f91897707)" style="fill: none; stroke: #d9dee5; stroke-width: 0.58; stroke-linecap: square"/>
     </g>
     <g id="line2d_20">
      <g>
       <use xlink:href="#mbf5bec3340" x="50.922" y="32.69619" style="fill: #5f6872; stroke: #5f6872; stroke-width: 0.65"/>
      </g>
     </g>
     <g id="text_11">
      <text style="font-size: 5.7px; font-family: 'DejaVu Serif', serif; text-anchor: end; fill: #5f6872" x="44.422" y="34.861745" transform="rotate(-0 44.422 34.861745)">80%</text>
     </g>
    </g>
    <g id="text_12">
     <text style="font-size: 6.6px; font-family: 'DejaVu Serif', serif; text-anchor: middle; fill: #15191f" x="27.380266" y="88.11" transform="rotate(-90 27.380266 88.11)">Endpoint pass rate</text>
    </g>
   </g>
   <g id="line2d_21">
    <path d="M 50.922 77.324762 
L 436.158 77.324762 
" clip-path="url(#p1f91897707)" style="fill: none; stroke-dasharray: 2.775,1.2; stroke-dashoffset: 0; stroke: #ddd7cb; stroke-width: 0.75"/>
   </g>
   <g id="patch_3">
    <path d="M 50.922 158.4 
L 50.922 17.82 
" style="fill: none; stroke: #afa89b; stroke-width: 0.8; stroke-linejoin: miter; stroke-linecap: square"/>
   </g>
   <g id="patch_4">
    <path d="M 50.922 158.4 
L 436.158 158.4 
" style="fill: none; stroke: #afa89b; stroke-width: 0.8; stroke-linejoin: miter; stroke-linecap: square"/>
   </g>
   <g id="PathCollection_1">
    <defs>
     <path id="m02d66fb824" d="M 0 3.162278 
C 0.838646 3.162278 1.643056 2.82908 2.236068 2.236068 
C 2.82908 1.643056 3.162278 0.838646 3.162278 0 
C 3.162278 -0.838646 2.82908 -1.643056 2.236068 -2.236068 
C 1.643056 -2.82908 0.838646 -3.162278 0 -3.162278 
C -0.838646 -3.162278 -1.643056 -2.82908 -2.236068 -2.236068 
C -2.82908 -1.643056 -3.162278 -0.838646 -3.162278 0 
C -3.162278 0.838646 -2.82908 1.643056 -2.236068 2.236068 
C -1.643056 2.82908 -0.838646 3.162278 0 3.162278 
z
" style="stroke: #ffffff; stroke-opacity: 0.92; stroke-width: 0.45"/>
    </defs>
    <g clip-path="url(#p1f91897707)">
     <use xlink:href="#m02d66fb824" x="402.866" y="117.201217" style="fill: #a95f3d; fill-opacity: 0.92; stroke: #ffffff; stroke-opacity: 0.92; stroke-width: 0.45"/>
     <use xlink:href="#m02d66fb824" x="141.286" y="100.56881" style="fill: #a95f3d; fill-opacity: 0.92; stroke: #ffffff; stroke-opacity: 0.92; stroke-width: 0.45"/>
     <use xlink:href="#m02d66fb824" x="117.506" y="100.052275" style="fill: #a95f3d; fill-opacity: 0.92; stroke: #ffffff; stroke-opacity: 0.92; stroke-width: 0.45"/>
     <use xlink:href="#m02d66fb824" x="93.726" y="139.308889" style="fill: #a95f3d; fill-opacity: 0.92; stroke: #ffffff; stroke-opacity: 0.92; stroke-width: 0.45"/>
    </g>
   </g>
   <g id="PathCollection_2">
    <defs>
     <path id="mb643111768" d="M 0 3.162278 
C 0.838646 3.162278 1.643056 2.82908 2.236068 2.236068 
C 2.82908 1.643056 3.162278 0.838646 3.162278 0 
C 3.162278 -0.838646 2.82908 -1.643056 2.236068 -2.236068 
C 1.643056 -2.82908 0.838646 -3.162278 0 -3.162278 
C -0.838646 -3.162278 -1.643056 -2.82908 -2.236068 -2.236068 
C -2.82908 -1.643056 -3.162278 -0.838646 -3.162278 0 
C -3.162278 0.838646 -2.82908 1.643056 -2.236068 2.236068 
C -1.643056 2.82908 -0.838646 3.162278 0 3.162278 
z
" style="stroke: #ffffff; stroke-opacity: 0.92; stroke-width: 0.45"/>
    </defs>
    <g clip-path="url(#p1f91897707)">
     <use xlink:href="#mb643111768" x="260.186" y="115.203951" style="fill: #7267c8; fill-opacity: 0.92; stroke: #ffffff; stroke-opacity: 0.92; stroke-width: 0.45"/>
     <use xlink:href="#mb643111768" x="117.506" y="103.151481" style="fill: #7267c8; fill-opacity: 0.92; stroke: #ffffff; stroke-opacity: 0.92; stroke-width: 0.45"/>
     <use xlink:href="#mb643111768" x="93.726" y="151.705714" style="fill: #7267c8; fill-opacity: 0.92; stroke: #ffffff; stroke-opacity: 0.92; stroke-width: 0.45"/>
    </g>
   </g>
   <g id="PathCollection_3">
    <defs>
     <path id="m695813aa1f" d="M 0 3.162278 
C 0.838646 3.162278 1.643056 2.82908 2.236068 2.236068 
C 2.82908 1.643056 3.162278 0.838646 3.162278 0 
C 3.162278 -0.838646 2.82908 -1.643056 2.236068 -2.236068 
C 1.643056 -2.82908 0.838646 -3.162278 0 -3.162278 
C -0.838646 -3.162278 -1.643056 -2.82908 -2.236068 -2.236068 
C -2.82908 -1.643056 -3.162278 -0.838646 -3.162278 0 
C -3.162278 0.838646 -2.82908 1.643056 -2.236068 2.236068 
C -1.643056 2.82908 -0.838646 3.162278 0 3.162278 
z
" style="stroke: #ffffff; stroke-opacity: 0.92; stroke-width: 0.45"/>
    </defs>
    <g clip-path="url(#p1f91897707)">
     <use xlink:href="#m695813aa1f" x="260.186" y="110.038607" style="fill: #8d867e; fill-opacity: 0.92; stroke: #ffffff; stroke-opacity: 0.92; stroke-width: 0.45"/>
    </g>
   </g>
   <g id="PathCollection_4">
    <defs>
     <path id="ma9d7f1c7c8" d="M 0 3.162278 
C 0.838646 3.162278 1.643056 2.82908 2.236068 2.236068 
C 2.82908 1.643056 3.162278 0.838646 3.162278 0 
C 3.162278 -0.838646 2.82908 -1.643056 2.236068 -2.236068 
C 1.643056 -2.82908 0.838646 -3.162278 0 -3.162278 
C -0.838646 -3.162278 -1.643056 -2.82908 -2.236068 -2.236068 
C -2.82908 -1.643056 -3.162278 -0.838646 -3.162278 0 
C -3.162278 0.838646 -2.82908 1.643056 -2.236068 2.236068 
C -1.643056 2.82908 -0.838646 3.162278 0 3.162278 
z
" style="stroke: #ffffff; stroke-opacity: 0.92; stroke-width: 0.45"/>
    </defs>
    <g clip-path="url(#p1f91897707)">
     <use xlink:href="#ma9d7f1c7c8" x="188.846" y="151.705714" style="fill: #2a9d8f; fill-opacity: 0.92; stroke: #ffffff; stroke-opacity: 0.92; stroke-width: 0.45"/>
     <use xlink:href="#ma9d7f1c7c8" x="165.066" y="131.250952" style="fill: #2a9d8f; fill-opacity: 0.92; stroke: #ffffff; stroke-opacity: 0.92; stroke-width: 0.45"/>
     <use xlink:href="#ma9d7f1c7c8" x="141.286" y="142.408095" style="fill: #2a9d8f; fill-opacity: 0.92; stroke: #ffffff; stroke-opacity: 0.92; stroke-width: 0.45"/>
     <use xlink:href="#ma9d7f1c7c8" x="117.506" y="103.151481" style="fill: #2a9d8f; fill-opacity: 0.92; stroke: #ffffff; stroke-opacity: 0.92; stroke-width: 0.45"/>
     <use xlink:href="#ma9d7f1c7c8" x="69.946" y="151.705714" style="fill: #2a9d8f; fill-opacity: 0.92; stroke: #ffffff; stroke-opacity: 0.92; stroke-width: 0.45"/>
    </g>
   </g>
   <g id="PathCollection_5">
    <defs>
     <path id="m475991092a" d="M 0 3.162278 
C 0.838646 3.162278 1.643056 2.82908 2.236068 2.236068 
C 2.82908 1.643056 3.162278 0.838646 3.162278 0 
C 3.162278 -0.838646 2.82908 -1.643056 2.236068 -2.236068 
C 1.643056 -2.82908 0.838646 -3.162278 0 -3.162278 
C -0.838646 -3.162278 -1.643056 -2.82908 -2.236068 -2.236068 
C -2.82908 -1.643056 -3.162278 -0.838646 -3.162278 0 
C -3.162278 0.838646 -2.82908 1.643056 -2.236068 2.236068 
C -1.643056 2.82908 -0.838646 3.162278 0 3.162278 
z
" style="stroke: #ffffff; stroke-opacity: 0.92; stroke-width: 0.45"/>
    </defs>
    <g clip-path="url(#p1f91897707)">
     <use xlink:href="#m475991092a" x="188.846" y="123.296323" style="fill: #b89142; fill-opacity: 0.92; stroke: #ffffff; stroke-opacity: 0.92; stroke-width: 0.45"/>
     <use xlink:href="#m475991092a" x="69.946" y="151.705714" style="fill: #b89142; fill-opacity: 0.92; stroke: #ffffff; stroke-opacity: 0.92; stroke-width: 0.45"/>
     <use xlink:href="#m475991092a" x="69.946" y="27.73746" style="fill: #b89142; fill-opacity: 0.92; stroke: #ffffff; stroke-opacity: 0.92; stroke-width: 0.45"/>
    </g>
   </g>
   <g id="PathCollection_6">
    <defs>
     <path id="m480bbd7ee7" d="M 0 3.162278 
C 0.838646 3.162278 1.643056 2.82908 2.236068 2.236068 
C 2.82908 1.643056 3.162278 0.838646 3.162278 0 
C 3.162278 -0.838646 2.82908 -1.643056 2.236068 -2.236068 
C 1.643056 -2.82908 0.838646 -3.162278 0 -3.162278 
C -0.838646 -3.162278 -1.643056 -2.82908 -2.236068 -2.236068 
C -2.82908 -1.643056 -3.162278 -0.838646 -3.162278 0 
C -3.162278 0.838646 -2.82908 1.643056 -2.236068 2.236068 
C -1.643056 2.82908 -0.838646 3.162278 0 3.162278 
z
" style="stroke: #ffffff; stroke-opacity: 0.92; stroke-width: 0.45"/>
    </defs>
    <g clip-path="url(#p1f91897707)">
     <use xlink:href="#m480bbd7ee7" x="141.286" y="95.145198" style="fill: #4b8bd1; fill-opacity: 0.92; stroke: #ffffff; stroke-opacity: 0.92; stroke-width: 0.45"/>
    </g>
   </g>
   <g id="PathCollection_7">
    <defs>
     <path id="mbfb7287b12" d="M 0 3.162278 
C 0.838646 3.162278 1.643056 2.82908 2.236068 2.236068 
C 2.82908 1.643056 3.162278 0.838646 3.162278 0 
C 3.162278 -0.838646 2.82908 -1.643056 2.236068 -2.236068 
C 1.643056 -2.82908 0.838646 -3.162278 0 -3.162278 
C -0.838646 -3.162278 -1.643056 -2.82908 -2.236068 -2.236068 
C -2.82908 -1.643056 -3.162278 -0.838646 -3.162278 0 
C -3.162278 0.838646 -2.82908 1.643056 -2.236068 2.236068 
C -1.643056 2.82908 -0.838646 3.162278 0 3.162278 
z
" style="stroke: #ffffff; stroke-opacity: 0.92; stroke-width: 0.45"/>
    </defs>
    <g clip-path="url(#p1f91897707)">
     <use xlink:href="#mbfb7287b12" x="93.726" y="117.614444" style="fill: #d14b4b; fill-opacity: 0.92; stroke: #ffffff; stroke-opacity: 0.92; stroke-width: 0.45"/>
    </g>
   </g>
   <g id="PathCollection_8">
    <defs>
     <path id="mc3b69d48d9" d="M 0 3.162278 
C 0.838646 3.162278 1.643056 2.82908 2.236068 2.236068 
C 2.82908 1.643056 3.162278 0.838646 3.162278 0 
C 3.162278 -0.838646 2.82908 -1.643056 2.236068 -2.236068 
C 1.643056 -2.82908 0.838646 -3.162278 0 -3.162278 
C -0.838646 -3.162278 -1.643056 -2.82908 -2.236068 -2.236068 
C -2.82908 -1.643056 -3.162278 -0.838646 -3.162278 0 
C -3.162278 0.838646 -2.82908 1.643056 -2.236068 2.236068 
C -1.643056 2.82908 -0.838646 3.162278 0 3.162278 
z
" style="stroke: #ffffff; stroke-opacity: 0.92; stroke-width: 0.45"/>
    </defs>
    <g clip-path="url(#p1f91897707)">
     <use xlink:href="#mc3b69d48d9" x="69.946" y="151.705714" style="fill: #8a6a52; fill-opacity: 0.92; stroke: #ffffff; stroke-opacity: 0.92; stroke-width: 0.45"/>
    </g>
   </g>
   <g id="PathCollection_9">
    <defs>
     <path id="m1cee51c63c" d="M 0 3.162278 
C 0.838646 3.162278 1.643056 2.82908 2.236068 2.236068 
C 2.82908 1.643056 3.162278 0.838646 3.162278 0 
C 3.162278 -0.838646 2.82908 -1.643056 2.236068 -2.236068 
C 1.643056 -2.82908 0.838646 -3.162278 0 -3.162278 
C -0.838646 -3.162278 -1.643056 -2.82908 -2.236068 -2.236068 
C -2.82908 -1.643056 -3.162278 -0.838646 -3.162278 0 
C -3.162278 0.838646 -2.82908 1.643056 -2.236068 2.236068 
C -1.643056 2.82908 -0.838646 3.162278 0 3.162278 
z
" style="stroke: #ffffff; stroke-opacity: 0.92; stroke-width: 0.45"/>
    </defs>
    <g clip-path="url(#p1f91897707)">
     <use xlink:href="#m1cee51c63c" x="69.946" y="151.705714" style="fill: #9a9a9a; fill-opacity: 0.92; stroke: #ffffff; stroke-opacity: 0.92; stroke-width: 0.45"/>
    </g>
   </g>
   <g id="PathCollection_10">
    <defs>
     <path id="mf92841ec45" d="M 0 3.162278 
C 0.838646 3.162278 1.643056 2.82908 2.236068 2.236068 
C 2.82908 1.643056 3.162278 0.838646 3.162278 0 
C 3.162278 -0.838646 2.82908 -1.643056 2.236068 -2.236068 
C 1.643056 -2.82908 0.838646 -3.162278 0 -3.162278 
C -0.838646 -3.162278 -1.643056 -2.82908 -2.236068 -2.236068 
C -2.82908 -1.643056 -3.162278 -0.838646 -3.162278 0 
C -3.162278 0.838646 -2.82908 1.643056 -2.236068 2.236068 
C -1.643056 2.82908 -0.838646 3.162278 0 3.162278 
z
" style="stroke: #ffffff; stroke-opacity: 0.92; stroke-width: 0.45"/>
    </defs>
    <g clip-path="url(#p1f91897707)">
     <use xlink:href="#mf92841ec45" x="69.946" y="145.507302" style="fill: #b8b2aa; fill-opacity: 0.92; stroke: #ffffff; stroke-opacity: 0.92; stroke-width: 0.45"/>
    </g>
   </g>
   <g id="text_13">
    <text style="font-weight: 700; font-size: 10.8px; font-family: 'DejaVu Serif', serif; text-anchor: start; fill: #15191f" x="22.0293" y="12.762338" transform="rotate(-0 22.0293 12.762338)">A</text>
   </g>
   <g id="patch_5">
    <path d="M 349.814822 131.484165 
Q 375.536735 127.594637 400.068348 118.282367 
" style="fill: none; stroke: #bdb6ac; stroke-width: 0.45; stroke-linecap: round"/>
   </g>
   <g id="text_14">
    <g id="patch_6">
     <path d="M 306.298047 140.234409 
L 347.6985 140.234409 
Q 347.831 140.234409 347.831 140.101909 
L 347.831 127.606662 
Q 347.831 127.474162 347.6985 127.474162 
L 306.298047 127.474162 
Q 306.165547 127.474162 306.165547 127.606662 
L 306.165547 140.101909 
Q 306.165547 140.234409 306.298047 140.234409 
z
" style="fill: #ffffff; opacity: 0.82"/>
    </g>
    <text style="font-size: 5.3px; font-family: 'DejaVu Serif', serif; fill: #15191f" transform="translate(307.013547 132.349334)">Used incorrect</text>
    <text style="font-size: 5.3px; font-family: 'DejaVu Serif', serif; fill: #15191f" transform="translate(325.635594 138.284175)">statistic</text>
   </g>
   <g id="patch_7">
    <path d="M 299.743346 95.590507 
Q 280.457092 102.775102 262.736089 113.619379 
" style="fill: none; stroke: #bdb6ac; stroke-width: 0.45; stroke-linecap: round"/>
   </g>
   <g id="text_15">
    <g id="patch_8">
     <path d="M 293.9515 94.899708 
L 351.377 94.899708 
Q 351.5095 94.899708 351.5095 94.767208 
L 351.5095 82.271961 
Q 351.5095 82.139461 351.377 82.139461 
L 293.9515 82.139461 
Q 293.819 82.139461 293.819 82.271961 
L 293.819 94.767208 
Q 293.819 94.899708 293.9515 94.899708 
z
" style="fill: #ffffff; opacity: 0.82"/>
    </g>
    <text style="font-size: 5.3px; font-family: 'DejaVu Serif', serif; fill: #15191f" transform="translate(294.667 86.939274)">Used literature prior</text>
    <text style="font-size: 5.3px; font-family: 'DejaVu Serif', serif; fill: #15191f" transform="translate(294.667 92.874114)">incorrectly</text>
   </g>
   <g id="patch_9">
    <path d="M 245.930035 83.386086 
Q 250.838372 96.146796 258.486541 107.56577 
" style="fill: none; stroke: #bdb6ac; stroke-width: 0.45; stroke-linecap: round"/>
   </g>
   <g id="text_16">
    <g id="patch_10">
     <path d="M 220.2335 81.511136 
L 265.912047 81.511136 
Q 266.044547 81.511136 266.044547 81.378636 
L 266.044547 68.88339 
Q 266.044547 68.75089 265.912047 68.75089 
L 220.2335 68.75089 
Q 220.101 68.75089 220.101 68.88339 
L 220.101 81.378636 
Q 220.101 81.511136 220.2335 81.511136 
z
" style="fill: #ffffff; opacity: 0.82"/>
    </g>
    <text style="font-size: 5.3px; font-family: 'DejaVu Serif', serif; fill: #15191f" transform="translate(220.949 73.550702)">Which threshold</text>
    <text style="font-size: 5.3px; font-family: 'DejaVu Serif', serif; fill: #15191f" transform="translate(220.949 79.485543)">to apply</text>
   </g>
   <g id="patch_11">
    <path d="M 189.582767 137.037866 
Q 188.701707 142.819599 188.757125 148.703807 
" style="fill: none; stroke: #bdb6ac; stroke-width: 0.45; stroke-linecap: round"/>
   </g>
   <g id="text_17">
    <g id="patch_12">
     <path d="M 165.5395 135.065422 
L 217.198766 135.065422 
Q 217.331266 135.065422 217.331266 134.932922 
L 217.331266 122.286957 
Q 217.331266 122.154457 217.198766 122.154457 
L 165.5395 122.154457 
Q 165.407 122.154457 165.407 122.286957 
L 165.407 134.932922 
Q 165.407 135.065422 165.5395 135.065422 
z
" style="fill: #ffffff; opacity: 0.82"/>
    </g>
    <text style="font-size: 5.3px; font-family: 'DejaVu Serif', serif; fill: #15191f" transform="translate(166.255 127.104988)">Incorrect handling</text>
    <text style="font-size: 5.3px; font-family: 'DejaVu Serif', serif; fill: #15191f" transform="translate(166.255 133.115188)">of features</text>
   </g>
   <g id="patch_13">
    <path d="M 204.093256 112.241157 
Q 197.318515 116.319972 191.142185 121.368206 
" style="fill: none; stroke: #bdb6ac; stroke-width: 0.45; stroke-linecap: round"/>
   </g>
   <g id="text_18">
    <g id="patch_14">
     <path d="M 204.7765 111.225838 
L 232.695078 111.225838 
Q 232.827578 111.225838 232.827578 111.093338 
L 232.827578 98.598091 
Q 232.827578 98.465591 232.695078 98.465591 
L 204.7765 98.465591 
Q 204.644 98.465591 204.644 98.598091 
L 204.644 111.093338 
Q 204.644 111.225838 204.7765 111.225838 
z
" style="fill: #ffffff; opacity: 0.82"/>
    </g>
    <text style="font-size: 5.3px; font-family: 'DejaVu Serif', serif; fill: #15191f" transform="translate(205.492 103.340763)">What unit</text>
    <text style="font-size: 5.3px; font-family: 'DejaVu Serif', serif; fill: #15191f" transform="translate(205.492 109.275603)">to use</text>
   </g>
   <g id="legend_1">
    <g id="line2d_22">
     <defs>
      <path id="mdc158f7464" d="M 0 2.25 
C 0.596707 2.25 1.169055 2.012926 1.59099 1.59099 
C 2.012926 1.169055 2.25 0.596707 2.25 0 
C 2.25 -0.596707 2.012926 -1.169055 1.59099 -1.59099 
C 1.169055 -2.012926 0.596707 -2.25 0 -2.25 
C -0.596707 -2.25 -1.169055 -2.012926 -1.59099 -1.59099 
C -2.012926 -1.169055 -2.25 -0.596707 -2.25 0 
C -2.25 0.596707 -2.012926 1.169055 -1.59099 1.59099 
C -1.169055 2.012926 -0.596707 2.25 0 2.25 
z
" style="stroke: #ffffff"/>
     </defs>
     <g>
      <use xlink:href="#mdc158f7464" x="394.029609" y="24.500203" style="fill: #a95f3d; stroke: #ffffff"/>
     </g>
    </g>
    <g id="text_19">
     <text style="font-size: 5.1px; font-family: 'DejaVu Serif', serif; text-anchor: start; fill: #15191f" x="400.404609" y="26.285203" transform="rotate(-0 400.404609 26.285203)">Statistic</text>
    </g>
    <g id="line2d_23">
     <defs>
      <path id="m0dd9dcb9f2" d="M 0 2.25 
C 0.596707 2.25 1.169055 2.012926 1.59099 1.59099 
C 2.012926 1.169055 2.25 0.596707 2.25 0 
C 2.25 -0.596707 2.012926 -1.169055 1.59099 -1.59099 
C 1.169055 -2.012926 0.596707 -2.25 0 -2.25 
C -0.596707 -2.25 -1.169055 -2.012926 -1.59099 -1.59099 
C -2.012926 -1.169055 -2.25 -0.596707 -2.25 0 
C -2.25 0.596707 -2.012926 1.169055 -1.59099 1.59099 
C -1.169055 2.012926 -0.596707 2.25 0 2.25 
z
" style="stroke: #ffffff"/>
     </defs>
     <g>
      <use xlink:href="#m0dd9dcb9f2" x="394.029609" y="30.354047" style="fill: #2a9d8f; stroke: #ffffff"/>
     </g>
    </g>
    <g id="text_20">
     <text style="font-size: 5.1px; font-family: 'DejaVu Serif', serif; text-anchor: start; fill: #15191f" x="400.404609" y="32.139047" transform="rotate(-0 400.404609 32.139047)">Data format</text>
    </g>
    <g id="line2d_24">
     <defs>
      <path id="mf845b53500" d="M 0 2.25 
C 0.596707 2.25 1.169055 2.012926 1.59099 1.59099 
C 2.012926 1.169055 2.25 0.596707 2.25 0 
C 2.25 -0.596707 2.012926 -1.169055 1.59099 -1.59099 
C 1.169055 -2.012926 0.596707 -2.25 0 -2.25 
C -0.596707 -2.25 -1.169055 -2.012926 -1.59099 -1.59099 
C -2.012926 -1.169055 -2.25 -0.596707 -2.25 0 
C -2.25 0.596707 -2.012926 1.169055 -1.59099 1.59099 
C -1.169055 2.012926 -0.596707 2.25 0 2.25 
z
" style="stroke: #ffffff"/>
     </defs>
     <g>
      <use xlink:href="#mf845b53500" x="394.029609" y="36.207891" style="fill: #7267c8; stroke: #ffffff"/>
     </g>
    </g>
    <g id="text_21">
     <text style="font-size: 5.1px; font-family: 'DejaVu Serif', serif; text-anchor: start; fill: #15191f" x="400.404609" y="37.992891" transform="rotate(-0 400.404609 37.992891)">Evidence</text>
    </g>
    <g id="line2d_25">
     <defs>
      <path id="m22711e1ad9" d="M 0 2.25 
C 0.596707 2.25 1.169055 2.012926 1.59099 1.59099 
C 2.012926 1.169055 2.25 0.596707 2.25 0 
C 2.25 -0.596707 2.012926 -1.169055 1.59099 -1.59099 
C 1.169055 -2.012926 0.596707 -2.25 0 -2.25 
C -0.596707 -2.25 -1.169055 -2.012926 -1.59099 -1.59099 
C -2.012926 -1.169055 -2.25 -0.596707 -2.25 0 
C -2.25 0.596707 -2.012926 1.169055 -1.59099 1.59099 
C -1.169055 2.012926 -0.596707 2.25 0 2.25 
z
" style="stroke: #ffffff"/>
     </defs>
     <g>
      <use xlink:href="#m22711e1ad9" x="394.029609" y="42.061734" style="fill: #b89142; stroke: #ffffff"/>
     </g>
    </g>
    <g id="text_22">
     <text style="font-size: 5.1px; font-family: 'DejaVu Serif', serif; text-anchor: start; fill: #15191f" x="400.404609" y="43.846734" transform="rotate(-0 400.404609 43.846734)">Unit</text>
    </g>
    <g id="line2d_26">
     <defs>
      <path id="mc36e6a8b73" d="M 0 2.25 
C 0.596707 2.25 1.169055 2.012926 1.59099 1.59099 
C 2.012926 1.169055 2.25 0.596707 2.25 0 
C 2.25 -0.596707 2.012926 -1.169055 1.59099 -1.59099 
C 1.169055 -2.012926 0.596707 -2.25 0 -2.25 
C -0.596707 -2.25 -1.169055 -2.012926 -1.59099 -1.59099 
C -2.012926 -1.169055 -2.25 -0.596707 -2.25 0 
C -2.25 0.596707 -2.012926 1.169055 -1.59099 1.59099 
C -1.169055 2.012926 -0.596707 2.25 0 2.25 
z
" style="stroke: #ffffff"/>
     </defs>
     <g>
      <use xlink:href="#mc36e6a8b73" x="394.029609" y="47.915578" style="fill: #8d867e; stroke: #ffffff"/>
     </g>
    </g>
    <g id="text_23">
     <text style="font-size: 5.1px; font-family: 'DejaVu Serif', serif; text-anchor: start; fill: #15191f" x="400.404609" y="49.700578" transform="rotate(-0 400.404609 49.700578)">Threshold</text>
    </g>
   </g>
  </g>
 </g>
 <defs>
  <clipPath id="p1f91897707">
   <rect x="50.922" y="17.82" width="385.236" height="140.58"/>
  </clipPath>
 </defs>
</svg>
